<?xml version="1.0" encoding="UTF-8" standalone="no"?><!DOCTYPE svg PUBLIC "-//W3C//DTD SVG 1.1//EN" "http://www.w3.org/Graphics/SVG/1.1/DTD/svg11.dtd"><svg width="100%" height="100%" viewBox="0 0 54 15" version="1.1" xmlns="http://www.w3.org/2000/svg" xmlns:xlink="http://www.w3.org/1999/xlink" xml:space="preserve" xmlns:serif="http://www.serif.com/" style="fill-rule:evenodd;clip-rule:evenodd;stroke-linejoin:round;stroke-miterlimit:2;"><rect id="Artboard2" x="0" y="0" width="53.872" height="14.173" style="fill:none;"/><g transform="matrix(14.1381,0,0,14.1381,0.253073,12.2181)"><path d="M0.309,0.012c-0.047,0 -0.088,-0.008 -0.122,-0.024c-0.035,-0.016 -0.063,-0.038 -0.083,-0.067c-0.02,-0.028 -0.031,-0.061 -0.034,-0.098l0.047,-0c0.002,0.03 0.012,0.056 0.029,0.078c0.017,0.021 0.039,0.038 0.067,0.05c0.028,0.012 0.06,0.018 0.096,0.018c0.039,-0 0.074,-0.007 0.103,-0.02c0.03,-0.013 0.053,-0.032 0.07,-0.056c0.016,-0.024 0.025,-0.051 0.025,-0.083c-0,-0.025 -0.006,-0.046 -0.018,-0.064c-0.012,-0.018 -0.03,-0.034 -0.053,-0.047c-0.024,-0.014 -0.053,-0.026 -0.088,-0.036l-0.084,-0.025c-0.058,-0.018 -0.101,-0.042 -0.131,-0.072c-0.03,-0.03 -0.045,-0.067 -0.045,-0.111c0,-0.037 0.01,-0.071 0.03,-0.1c0.02,-0.029 0.047,-0.052 0.081,-0.068c0.035,-0.017 0.073,-0.025 0.116,-0.025c0.044,0 0.083,0.008 0.116,0.025c0.033,0.017 0.059,0.04 0.079,0.069c0.019,0.028 0.03,0.062 0.032,0.099l-0.045,-0c-0.004,-0.045 -0.022,-0.081 -0.055,-0.109c-0.033,-0.028 -0.076,-0.042 -0.128,-0.042c-0.034,0 -0.066,0.007 -0.093,0.02c-0.027,0.013 -0.049,0.03 -0.064,0.053c-0.016,0.022 -0.024,0.048 -0.024,0.077c0,0.025 0.007,0.046 0.019,0.064c0.013,0.019 0.03,0.034 0.053,0.047c0.022,0.013 0.048,0.023 0.077,0.032l0.079,0.024c0.028,0.008 0.053,0.018 0.076,0.029c0.023,0.011 0.043,0.024 0.061,0.039c0.017,0.015 0.03,0.032 0.04,0.052c0.009,0.02 0.014,0.044 0.014,0.07c-0,0.038 -0.01,0.073 -0.03,0.103c-0.02,0.03 -0.048,0.054 -0.084,0.072c-0.036,0.017 -0.079,0.026 -0.129,0.026Z" style="fill:#c2185b;fill-rule:nonzero;"/></g><g transform="matrix(14.1381,0,0,14.1381,9.04799,12.2181)"><path d="M0.105,-0l-0,-0.728l0.046,0l0,0.686l0.355,-0l-0,0.042l-0.401,-0Z" style="fill:#c2185b;fill-rule:nonzero;"/></g><g transform="matrix(14.1381,0,0,14.1381,16.6141,12.2181)"><path d="M0.377,0.01c-0.061,-0 -0.114,-0.016 -0.161,-0.047c-0.046,-0.031 -0.083,-0.074 -0.109,-0.13c-0.026,-0.056 -0.039,-0.122 -0.039,-0.196c0,-0.075 0.013,-0.141 0.039,-0.197c0.027,-0.056 0.063,-0.1 0.109,-0.131c0.047,-0.031 0.1,-0.046 0.161,-0.046c0.06,-0 0.114,0.015 0.16,0.046c0.046,0.031 0.083,0.075 0.109,0.131c0.026,0.056 0.039,0.122 0.039,0.197c-0,0.075 -0.013,0.14 -0.039,0.196c-0.026,0.056 -0.063,0.1 -0.109,0.13c-0.046,0.031 -0.1,0.047 -0.16,0.047Zm-0,-0.044c0.051,0 0.096,-0.013 0.136,-0.04c0.039,-0.027 0.071,-0.065 0.093,-0.115c0.023,-0.049 0.034,-0.107 0.034,-0.174c-0,-0.068 -0.011,-0.126 -0.034,-0.175c-0.022,-0.05 -0.054,-0.088 -0.093,-0.115c-0.04,-0.027 -0.085,-0.041 -0.136,-0.041c-0.051,0 -0.097,0.014 -0.136,0.041c-0.04,0.027 -0.071,0.065 -0.094,0.114c-0.023,0.05 -0.034,0.108 -0.034,0.176c0,0.066 0.011,0.124 0.034,0.174c0.022,0.049 0.053,0.087 0.093,0.114c0.04,0.028 0.085,0.041 0.137,0.041Z" style="fill:#c2185b;fill-rule:nonzero;"/></g><g transform="matrix(14.1381,0,0,14.1381,27.2591,12.2181)"><path d="M0.105,-0l-0,-0.728l0.046,0l0,0.686l0.355,-0l-0,0.042l-0.401,-0Z" style="fill:#c2185b;fill-rule:nonzero;"/></g><g transform="matrix(14.1381,0,0,14.1381,35.2256,12.2181)"><path d="M0.03,-0l0.269,-0.728l0.057,0l0.27,0.728l-0.048,-0l-0.192,-0.52c-0.01,-0.026 -0.02,-0.054 -0.03,-0.085c-0.011,-0.031 -0.022,-0.065 -0.035,-0.103l0.012,0c-0.012,0.038 -0.024,0.073 -0.034,0.104c-0.011,0.031 -0.021,0.059 -0.03,0.084l-0.19,0.52l-0.049,-0Zm0.116,-0.229l-0,-0.042l0.365,-0l-0,0.042l-0.365,-0Z" style="fill:#c2185b;fill-rule:nonzero;"/></g><g transform="matrix(14.1381,0,0,14.1381,44.5061,12.2181)"><path d="M0.105,-0l-0,-0.728l0.237,0c0.044,0 0.081,0.008 0.111,0.024c0.031,0.016 0.054,0.038 0.069,0.066c0.016,0.028 0.024,0.061 0.024,0.098c-0,0.029 -0.005,0.055 -0.014,0.078c-0.01,0.023 -0.023,0.041 -0.04,0.056c-0.017,0.015 -0.037,0.025 -0.059,0.031l-0,0.005c0.023,0.002 0.046,0.01 0.068,0.026c0.021,0.015 0.039,0.036 0.053,0.063c0.013,0.026 0.02,0.057 0.02,0.092c0,0.037 -0.008,0.07 -0.024,0.098c-0.016,0.029 -0.04,0.051 -0.071,0.067c-0.032,0.016 -0.071,0.024 -0.118,0.024l-0.256,-0Zm0.046,-0.042l0.209,-0c0.054,-0 0.096,-0.014 0.126,-0.041c0.029,-0.028 0.043,-0.063 0.043,-0.106c0,-0.031 -0.007,-0.058 -0.021,-0.082c-0.014,-0.024 -0.033,-0.043 -0.059,-0.057c-0.025,-0.014 -0.054,-0.021 -0.087,-0.021l-0.211,0l-0,0.307Zm-0,-0.348l0.205,0c0.031,0 0.057,-0.007 0.079,-0.02c0.022,-0.013 0.038,-0.031 0.049,-0.054c0.012,-0.023 0.017,-0.048 0.017,-0.076c0,-0.044 -0.014,-0.08 -0.041,-0.106c-0.028,-0.026 -0.068,-0.039 -0.119,-0.039l-0.19,-0l-0,0.295Z" style="fill:#c2185b;fill-rule:nonzero;"/></g><g transform="matrix(14.1381,0,0,14.1381,53.6185,12.2181)"></g></svg>